<?xml version="1.0" encoding="utf-8"?>
<svg version="1.1" xmlns:xlink="http://www.w3.org/1999/xlink" width="10px" height="10px" xmlns="http://www.w3.org/2000/svg">
  <g transform="matrix(1 0 0 1 -86 -522 )">
    <path d="M 10 7.78260869565217  C 10 7.95330112721417  9.96071133167907 8.09983896940419  9.88213399503722 8.22222222222222  L 8.85235732009926 9.81642512077295  C 8.7737799834574 9.93880837359098  8.68072787427626 10  8.57320099255583 10  C 8.4656741108354 10  8.37262200165426 9.93880837359098  8.29404466501241 9.81642512077295  L 5 4.68599033816425  L 1.70595533498759 9.81642512077295  C 1.62737799834574 9.93880837359098  1.5343258891646 10  1.42679900744417 10  C 1.31927212572374 10  1.2262200165426 9.93880837359098  1.14764267990074 9.81642512077295  L 0.117866004962779 8.22222222222222  C 0.0392886683209264 8.09983896940419  0 7.95330112721417  0 7.78260869565217  C 0 7.61191626409018  0.0392886683209264 7.46537842190016  0.117866004962779 7.34299516908212  L 4.72084367245658 0.183574879227053  C 4.79942100909843 0.0611916264090173  4.89247311827957 0  5 0  C 5.10752688172043 0  5.20057899090157 0.0611916264090173  5.27915632754342 0.183574879227053  L 9.88213399503722 7.34299516908212  C 9.96071133167907 7.46537842190016  10 7.61191626409018  10 7.78260869565217  Z " fill-rule="nonzero" fill="#000000" stroke="none" transform="matrix(1 0 0 1 86 522 )" />
  </g>
</svg>