<?xml version="1.0" encoding="utf-8"?>
<svg version="1.1" xmlns:xlink="http://www.w3.org/1999/xlink" width="10px" height="10px" xmlns="http://www.w3.org/2000/svg">
  <g transform="matrix(1 0 0 1 -86 -542 )">
    <path d="M 10 2.21739130434783  C 10 2.38808373590982  9.96071133167907 2.53462157809984  9.88213399503722 2.65700483091787  L 5.27915632754342 9.81642512077295  C 5.20057899090157 9.93880837359098  5.10752688172043 10  5 10  C 4.89247311827957 10  4.79942100909843 9.93880837359098  4.72084367245658 9.81642512077295  L 0.117866004962779 2.65700483091787  C 0.0392886683209264 2.53462157809984  0 2.38808373590982  0 2.21739130434783  C 0 2.04669887278583  0.0392886683209264 1.90016103059581  0.117866004962779 1.77777777777778  L 1.14764267990074 0.183574879227053  C 1.2262200165426 0.0611916264090173  1.31927212572374 0  1.42679900744417 0  C 1.5343258891646 0  1.62737799834574 0.0611916264090173  1.70595533498759 0.183574879227053  L 5 5.31400966183575  L 8.29404466501241 0.183574879227053  C 8.37262200165426 0.0611916264090173  8.4656741108354 0  8.57320099255583 0  C 8.68072787427626 0  8.7737799834574 0.0611916264090173  8.85235732009926 0.183574879227053  L 9.88213399503722 1.77777777777778  C 9.96071133167907 1.90016103059581  10 2.04669887278583  10 2.21739130434783  Z " fill-rule="nonzero" fill="#000000" stroke="none" transform="matrix(1 0 0 1 86 542 )" />
  </g>
</svg>