<?xml version="1.0" encoding="utf-8"?>
<svg version="1.1" xmlns:xlink="http://www.w3.org/1999/xlink" width="35px" height="35px" xmlns="http://www.w3.org/2000/svg">
  <g transform="matrix(1 0 0 1 -966 -815 )">
    <path d="M 19.80929844098 29.4155649038462  C 19.932720861173 29.2823517628205  19.9944320712695 29.1175881410256  19.9944320712695 28.9212740384615  L 19.9944320712695 24.9248798076923  C 19.9944320712695 24.7285657051282  19.932720861173 24.5638020833333  19.80929844098 24.4305889423077  C 19.6858760207869 24.2973758012821  19.539717891611 24.2307692307692  19.3708240534521 24.2307692307692  L 15.6291759465479 24.2307692307692  C 15.460282108389 24.2307692307692  15.3141239792131 24.2973758012821  15.19070155902 24.4305889423077  C 15.067279138827 24.5638020833333  15.0055679287305 24.7285657051282  15.0055679287305 24.9248798076923  L 15.0055679287305 28.9212740384615  C 15.0055679287305 29.1175881410256  15.067279138827 29.2823517628205  15.19070155902 29.4155649038462  C 15.3141239792131 29.5487780448718  15.460282108389 29.6153846153846  15.6291759465479 29.6153846153846  L 19.3708240534521 29.6153846153846  C 19.539717891611 29.6153846153846  19.6858760207869 29.5487780448718  19.80929844098 29.4155649038462  Z M 19.7508351893096 21.4017427884615  C 19.8742576095026 21.3105969551282  19.9424647364514 21.1949118589744  19.9554565701559 21.0546875  L 20.3062360801782 11.4002403846154  C 20.3062360801782 11.2319711538462  20.2412769116555 11.0987580128205  20.1113585746102 11.0006009615385  C 19.9424647364514 10.8463541666667  19.786562731997 10.7692307692308  19.6436525612472 10.7692307692308  L 15.3563474387528 10.7692307692308  C 15.213437268003 10.7692307692308  15.0575352635486 10.8463541666667  14.8886414253898 11.0006009615385  C 14.7587230883445 11.0987580128205  14.6937639198218 11.2459935897436  14.6937639198218 11.4423076923077  L 15.0250556792873 21.0546875  C 15.0250556792873 21.1949118589744  15.09001484781 21.3105969551282  15.2199331848552 21.4017427884615  C 15.3498515219005 21.4928886217949  15.5057535263549 21.5384615384615  15.6876391982183 21.5384615384615  L 19.2928730512249 21.5384615384615  C 19.4747587230883 21.5384615384615  19.6274127691166 21.4928886217949  19.7508351893096 21.4017427884615  Z M 18.7667037861915 0.37860576923077  C 19.1564587973274 0.631009615384615  19.4617668893838 0.974559294871792  19.6826280623608 1.40925480769231  L 34.6492204899777 31.0246394230769  C 35.1039346696362 31.9080528846154  35.0909428359317 32.7914663461538  34.6102449888641 33.6748798076923  C 34.3893838158872 34.0815304487179  34.0873236822569 34.404046474359  33.7040645879733 34.6424278846154  C 33.3208054936897 34.8808092948718  32.9083147735709 35  32.4665924276169 35  L 2.53340757238307 35  C 2.0916852264291 35  1.67919450631032 34.8808092948718  1.29593541202673 34.6424278846154  C 0.912676317743133 34.404046474359  0.610616184112843 34.0815304487179  0.389755011135857 33.6748798076923  C -0.0909428359317001 32.7914663461538  -0.103934669636229 31.9080528846154  0.350779510022272 31.0246394230769  L 15.3173719376392 1.40925480769231  C 15.5382331106162 0.974559294871792  15.8435412026726 0.631009615384615  16.2332962138085 0.37860576923077  C 16.6230512249443 0.126201923076925  17.0452858203415 0  17.5 0  C 17.9547141796585 0  18.3769487750557 0.126201923076925  18.7667037861915 0.37860576923077  Z " fill-rule="nonzero" fill="#f7d80a" stroke="none" transform="matrix(1 0 0 1 966 815 )" />
  </g>
</svg>